PathFileType	4	(X/Y/Z)	C:/Users/opensim2020/Desktop/walking_exp_matlab/subject01_walking07_straight_03.trc																																																																																																																															
DataRate	CameraRate	NumFrames	NumMarkers	Units	OrigDataRate	OrigDataStartFrame	OrigNumFrames																																																																																																																											
100	100	5	43	mm	100	2063	220																																																																																																																											
Frame#	Time	LFHD			RFHD			LBHD			RBHD			C7			T10			CLAV			STRN			RBAK			LSHO			LUPA			LELB			LFRM			LWRA			LWRB			LFIN			RSHO			RUPA			RELB			RFRM			RWRA			RWRB			RFIN			LASI			RASI			LPSI			RPSI			LTHI			LKNE			LTIB			LANK			LHEE			LTOE			RTHI			RKNE			RTIB			RANK			RHEE			RTOE			*39			*40			*41			*42		
		X1	Y1	Z1	X2	Y2	Z2	X3	Y3	Z3	X4	Y4	Z4	X5	Y5	Z5	X6	Y6	Z6	X7	Y7	Z7	X8	Y8	Z8	X9	Y9	Z9	X10	Y10	Z10	X11	Y11	Z11	X12	Y12	Z12	X13	Y13	Z13	X14	Y14	Z14	X15	Y15	Z15	X16	Y16	Z16	X17	Y17	Z17	X18	Y18	Z18	X19	Y19	Z19	X20	Y20	Z20	X21	Y21	Z21	X22	Y22	Z22	X23	Y23	Z23	X24	Y24	Z24	X25	Y25	Z25	X26	Y26	Z26	X27	Y27	Z27	X28	Y28	Z28	X29	Y29	Z29	X30	Y30	Z30	X31	Y31	Z31	X32	Y32	Z32	X33	Y33	Z33	X34	Y34	Z34	X35	Y35	Z35	X36	Y36	Z36	X37	Y37	Z37	X38	Y38	Z38	X39	Y39	Z39	X40	Y40	Z40	X41	Y41	Z41	X42	Y42	Z42	X43	Y43	Z43
																																																																																																																																		
28	0.27	-742.11957	1671.56726	1403.80164	-699.12836	1678.40308	1509.66101	-847.81763	1616.12793	1441.83533	-805.07501	1622.03491	1554.62634	-864.30524	1428.29028	1462.43579	-905.77686	1137.55298	1467.08337	-720.57092	1361.02649	1459.04297	-681.14215	1204.45068	1454.82654	-921.89551	1236.60681	1537.45947	-780.50653	1390.91772	1299.97937	-799.86993	1205.1405	1214.20129	-810.41382	1053.55554	1212.47534	-763.26776	948.08258	1193.49768	-682.70105	838.22186	1223.09436	-731.99371	829.7724	1191.26733	-678.10547	764.46545	1189.99438	-781.23291	1388.91028	1612.01477	-839.31458	1188.4198	1708.86084	-835.39777	1063.10437	1711.98914	-800.12933	947.67999	1744.91541	-709.18903	838.4953	1730.89185	-754.60974	835.57367	1768.32556	-710.66077	761.52319	1766.82068	-734.67181	930.11206	1361.53418	-737.60938	931.12537	1579.71606	-922.45691	940.16486	1413.45581	-921.4801	939.177	1558.52295	-747.33337	595.91437	1320.11206	-746.28418	462.17969	1345.28967	-795.47461	277.40213	1345.65454	-819.66193	64.53963	1412.57422	-863.52264	36.11295	1466.77417	-672.94403	31.25348	1402.83154	-739.08264	602.68634	1659.91138	-713.87793	448.08206	1652.13074	-861.57037	353.79022	1652.62305	-1012.24414	213.25809	1608.4353	-1066.06934	214.58936	1550.24988	-957.64453	81.98023	1628.8512	-719.7182	1710.69128	1492.08618	1973.00928	1023.77557	-3101.95166	2012.52454	1022.02515	-3140.58984	NaN	NaN	NaN
29	0.28	-733.10773	1671.77405	1402.33374	-690.49396	1678.54187	1508.21484	-839.21765	1616.77551	1440.05896	-796.82324	1622.65344	1552.94714	-856.44977	1428.83679	1461.05005	-898.20441	1138.10522	1466.12512	-712.81964	1361.37085	1457.8324	-673.55994	1204.70435	1453.77063	-914.33392	1237.26648	1536.0658	-772.37952	1391.21533	1298.73901	-790.1145	1205.39819	1212.91895	-798.54065	1053.58594	1210.99915	-748.90082	949.08258	1192.35327	-666.11096	841.08435	1222.37708	-715.02179	831.5506	1190.32556	-659.66711	767.65314	1189.01086	-773.80316	1389.46277	1610.745	-832.86749	1189.02747	1707.31287	-829.552	1063.68298	1709.96765	-795.9588	947.91364	1742.88818	-706.34735	837.526	1729.17126	-751.95239	835.2298	1766.36609	-709.03882	760.7356	1765.29932	-727.7049	930.38635	1360.05139	-729.58258	932.21289	1578.20154	-915.07068	940.50269	1413.46667	-913.23584	940.15265	1558.68457	-742.67456	595.55078	1319.6095	-743.18005	461.78864	1344.98083	-793.89081	277.50058	1345.55994	-819.43262	64.56374	1412.54053	-863.85376	36.9413	1466.22144	-672.77472	31.10017	1402.87988	-725.29816	604.6546	1658.20105	-696.87726	450.58597	1649.74341	-842.6499	353.31638	1650.82202	-990.53638	209.62045	1606.62122	-1045.50854	209.15567	1548.79309	-930.99969	81.10259	1626.80237	-710.93549	1710.87305	1490.59265	1973.17029	1023.44421	-3102.07031	2012.53064	1022.07983	-3140.6394	NaN	NaN	NaN
30	0.29	-724.20941	1671.89697	1400.83765	-681.84436	1678.65845	1506.89294	-830.59875	1617.43359	1438.38062	-788.5321	1623.31592	1551.41223	-848.72815	1429.3208	1459.59729	-890.55591	1138.53894	1465.19043	-705.08362	1361.72205	1456.76563	-665.94	1204.98828	1452.69873	-906.71222	1237.8761	1534.76257	-764.34717	1391.5907	1297.61182	-780.45581	1205.69128	1211.62134	-786.79749	1053.64832	1209.62354	-734.76813	950.24176	1191.20483	-649.3429	844.36078	1221.17249	-698.13275	833.57233	1189.43579	-641.31708	771.00403	1188.08044	-766.27563	1389.9989	1609.52258	-826.42236	1189.68945	1705.79663	-823.72797	1064.37317	1708.11243	-791.68414	948.24268	1740.99939	-703.5304	836.6333	1727.57703	-749.4068	834.85889	1764.44751	-707.42542	759.96228	1763.82568	-720.35193	930.63226	1358.80652	-721.58118	933.35529	1576.71448	-907.66272	940.86084	1413.46362	-905.00836	941.01941	1558.81348	-738.10559	595.1629	1319.45154	-740.12079	461.37619	1344.60205	-792.61871	277.63083	1345.50537	-819.09143	64.57475	1412.57556	-863.81067	37.3167	1466.28015	-672.58752	30.96002	1402.79297	-711.76483	606.70923	1656.57532	-680.5791	453.15533	1647.54407	-823.72479	352.03552	1648.78857	-968.68951	205.43193	1604.74268	-1023.97736	202.69896	1547.04846	-903.89886	79.65383	1624.77576	-702.13135	1711.0752	1489.14343	1973.23291	1023.44421	-3101.88062	2012.55078	1021.92969	-3140.73633	NaN	NaN	NaN
31	0.3	-715.27197	1672.07214	1399.47998	-673.19598	1678.73914	1505.66785	-821.99939	1618.09155	1436.76038	-780.25537	1623.89514	1549.87024	-840.78076	1429.63123	1458.24207	-882.94891	1139.05737	1464.30701	-697.25885	1362.06433	1455.68225	-658.27936	1205.27979	1451.61377	-899.04205	1238.49597	1533.52209	-756.26263	1391.89429	1296.42737	-770.98895	1205.979	1210.39441	-775.20819	1053.75232	1208.3551	-720.91089	951.38629	1190.03064	-632.89282	847.71277	1220.172	-681.53766	835.67175	1188.57288	-623.17749	774.59583	1187.05774	-758.68964	1390.5675	1608.31409	-819.87018	1190.3866	1704.40149	-817.86755	1065.073	1706.41919	-787.42804	948.60156	1739.27563	-700.75555	835.82434	1726.09705	-746.73706	834.69714	1762.84937	-705.81268	759.31927	1762.49023	-713.50354	930.84631	1357.50232	-713.65674	934.49609	1575.30383	-900.25061	941.12659	1413.36304	-896.90741	941.92328	1558.82324	-733.89166	595.05133	1319.18945	-737.13019	461.06128	1344.21509	-791.45392	277.91232	1345.17432	-819.42377	65.36229	1412.47412	-863.69397	37.84856	1466.37964	-672.55029	30.92048	1402.68762	-698.63312	608.67743	1654.90771	-664.48169	455.61392	1645.16687	-804.82935	350.05008	1646.68652	-946.117	200.07275	1602.63928	-1001.60504	195.31259	1545.39807	-876.24622	77.31062	1623.19116	-693.22913	1711.22815	1487.77429	1973.1123	1023.44641	-3102.0603	2012.59302	1022.01038	-3140.63037	NaN	NaN	NaN
32	0.31	-706.40002	1672.16162	1398.15771	-664.46259	1678.81384	1504.54858	-813.25983	1618.61084	1435.24634	-771.94971	1624.42834	1548.4176	-832.88782	1430.10254	1456.93909	-875.23718	1139.50513	1463.37036	-689.42401	1362.35669	1454.54993	-650.52173	1205.55579	1450.53735	-891.35986	1239.02905	1532.37549	-748.27338	1392.18713	1295.2417	-761.70337	1206.27185	1209.15784	-763.7655	1053.948	1207.24866	-707.22144	952.64093	1189.02271	-616.83374	851.04852	1219.37939	-665.05682	837.88617	1187.79736	-605.21686	778.3562	1186.08423	-750.96277	1391.0697	1607.20313	-813.25848	1191.06885	1703.06799	-811.98114	1065.88586	1704.93555	-783.10577	949.03809	1737.69446	-697.85577	835.10992	1724.75793	-744.06921	834.59814	1761.38635	-704.18536	758.70227	1761.17493	-706.56531	930.93457	1356.32959	-705.66821	935.60339	1574.0127	-892.81317	941.34766	1413.21753	-888.83899	942.53693	1558.67957	-729.4928	594.85706	1318.84644	-734.19696	460.82626	1343.69983	-790.29657	278.20898	1344.99487	-819.29602	65.59382	1412.28735	-863.59772	38.4772	1466.28284	-672.42981	30.84422	1402.62451	-684.55432	611.55786	1653.75989	-648.9353	458.07376	1642.72021	-785.91473	347.77652	1644.62842	-923.034	193.98393	1600.50037	-978.45251	186.68312	1543.21204	-847.96771	74.78452	1621.47742	-684.37323	1711.38635	1486.52222	1973.10779	1023.474	-3101.90234	2012.59778	1022.06921	-3140.72266	NaN	NaN	NaN
